<mxfile host="app.diagrams.net" agent="Mozilla/5.0 (Windows NT 10.0; Win64; x64) AppleWebKit/537.36 (KHTML, like Gecko) Chrome/129.0.0.0 Safari/537.36" version="24.7.16">
  <diagram name="Halaman-1" id="oKbfOll5b84YNYExeYap">
    <mxGraphModel dx="894" dy="425" grid="1" gridSize="10" guides="1" tooltips="1" connect="1" arrows="1" fold="1" page="1" pageScale="1" pageWidth="827" pageHeight="1169" math="0" shadow="0">
      <root>
        <mxCell id="0" />
        <mxCell id="1" parent="0" />
        <mxCell id="3qrNGIHSP-mbPtS7HRhv-3" style="edgeStyle=orthogonalEdgeStyle;rounded=0;orthogonalLoop=1;jettySize=auto;html=1;" edge="1" parent="1" source="3qrNGIHSP-mbPtS7HRhv-1">
          <mxGeometry relative="1" as="geometry">
            <mxPoint x="400" y="110" as="targetPoint" />
          </mxGeometry>
        </mxCell>
        <mxCell id="3qrNGIHSP-mbPtS7HRhv-1" value="" style="ellipse;whiteSpace=wrap;html=1;" vertex="1" parent="1">
          <mxGeometry x="340" width="120" height="80" as="geometry" />
        </mxCell>
        <mxCell id="3qrNGIHSP-mbPtS7HRhv-2" value="Mulai" style="text;html=1;align=center;verticalAlign=middle;whiteSpace=wrap;rounded=0;" vertex="1" parent="1">
          <mxGeometry x="370" y="25" width="60" height="30" as="geometry" />
        </mxCell>
        <mxCell id="3qrNGIHSP-mbPtS7HRhv-7" style="edgeStyle=orthogonalEdgeStyle;rounded=0;orthogonalLoop=1;jettySize=auto;html=1;entryX=0.5;entryY=0;entryDx=0;entryDy=0;" edge="1" parent="1" source="3qrNGIHSP-mbPtS7HRhv-4" target="3qrNGIHSP-mbPtS7HRhv-6">
          <mxGeometry relative="1" as="geometry" />
        </mxCell>
        <mxCell id="3qrNGIHSP-mbPtS7HRhv-4" value="" style="shape=parallelogram;perimeter=parallelogramPerimeter;whiteSpace=wrap;html=1;fixedSize=1;" vertex="1" parent="1">
          <mxGeometry x="340" y="110" width="120" height="60" as="geometry" />
        </mxCell>
        <mxCell id="3qrNGIHSP-mbPtS7HRhv-5" value="Masukan nilai Celcius" style="text;html=1;align=center;verticalAlign=middle;whiteSpace=wrap;rounded=0;" vertex="1" parent="1">
          <mxGeometry x="370" y="125" width="60" height="30" as="geometry" />
        </mxCell>
        <mxCell id="3qrNGIHSP-mbPtS7HRhv-9" value="" style="group" vertex="1" connectable="0" parent="1">
          <mxGeometry x="340" y="220" width="120" height="60" as="geometry" />
        </mxCell>
        <mxCell id="3qrNGIHSP-mbPtS7HRhv-13" style="edgeStyle=orthogonalEdgeStyle;rounded=0;orthogonalLoop=1;jettySize=auto;html=1;" edge="1" parent="3qrNGIHSP-mbPtS7HRhv-9" source="3qrNGIHSP-mbPtS7HRhv-6">
          <mxGeometry relative="1" as="geometry">
            <mxPoint x="60" y="90" as="targetPoint" />
          </mxGeometry>
        </mxCell>
        <mxCell id="3qrNGIHSP-mbPtS7HRhv-6" value="" style="rounded=0;whiteSpace=wrap;html=1;" vertex="1" parent="3qrNGIHSP-mbPtS7HRhv-9">
          <mxGeometry width="120" height="60" as="geometry" />
        </mxCell>
        <mxCell id="3qrNGIHSP-mbPtS7HRhv-8" value="Fahrentheit = (Celcius x 9/5) + 32" style="text;html=1;align=center;verticalAlign=middle;whiteSpace=wrap;rounded=0;" vertex="1" parent="3qrNGIHSP-mbPtS7HRhv-9">
          <mxGeometry x="30" y="15" width="60" height="30" as="geometry" />
        </mxCell>
        <mxCell id="3qrNGIHSP-mbPtS7HRhv-10" value="" style="group" vertex="1" connectable="0" parent="1">
          <mxGeometry x="340" y="310" width="120" height="60" as="geometry" />
        </mxCell>
        <mxCell id="3qrNGIHSP-mbPtS7HRhv-11" value="" style="rounded=0;whiteSpace=wrap;html=1;" vertex="1" parent="3qrNGIHSP-mbPtS7HRhv-10">
          <mxGeometry width="120" height="60" as="geometry" />
        </mxCell>
        <mxCell id="3qrNGIHSP-mbPtS7HRhv-12" value="Reamur = Celcius x 4/5" style="text;html=1;align=center;verticalAlign=middle;whiteSpace=wrap;rounded=0;" vertex="1" parent="3qrNGIHSP-mbPtS7HRhv-10">
          <mxGeometry x="30" y="15" width="60" height="30" as="geometry" />
        </mxCell>
        <mxCell id="3qrNGIHSP-mbPtS7HRhv-15" style="edgeStyle=orthogonalEdgeStyle;rounded=0;orthogonalLoop=1;jettySize=auto;html=1;entryX=0.5;entryY=0;entryDx=0;entryDy=0;" edge="1" parent="1" source="3qrNGIHSP-mbPtS7HRhv-11" target="3qrNGIHSP-mbPtS7HRhv-14">
          <mxGeometry relative="1" as="geometry" />
        </mxCell>
        <mxCell id="3qrNGIHSP-mbPtS7HRhv-17" value="" style="group" vertex="1" connectable="0" parent="1">
          <mxGeometry x="340" y="420" width="120" height="60" as="geometry" />
        </mxCell>
        <mxCell id="3qrNGIHSP-mbPtS7HRhv-14" value="" style="shape=parallelogram;perimeter=parallelogramPerimeter;whiteSpace=wrap;html=1;fixedSize=1;" vertex="1" parent="3qrNGIHSP-mbPtS7HRhv-17">
          <mxGeometry width="120" height="60" as="geometry" />
        </mxCell>
        <mxCell id="3qrNGIHSP-mbPtS7HRhv-16" value="Mengeluarkan nilai Fahrentheit" style="text;html=1;align=center;verticalAlign=middle;whiteSpace=wrap;rounded=0;" vertex="1" parent="3qrNGIHSP-mbPtS7HRhv-17">
          <mxGeometry x="30" y="15" width="60" height="30" as="geometry" />
        </mxCell>
        <mxCell id="3qrNGIHSP-mbPtS7HRhv-19" value="" style="group" vertex="1" connectable="0" parent="1">
          <mxGeometry x="340" y="520" width="120" height="60" as="geometry" />
        </mxCell>
        <mxCell id="3qrNGIHSP-mbPtS7HRhv-20" value="" style="shape=parallelogram;perimeter=parallelogramPerimeter;whiteSpace=wrap;html=1;fixedSize=1;" vertex="1" parent="3qrNGIHSP-mbPtS7HRhv-19">
          <mxGeometry width="120" height="60" as="geometry" />
        </mxCell>
        <mxCell id="3qrNGIHSP-mbPtS7HRhv-21" value="Mengeluarkan nilai Reamur" style="text;html=1;align=center;verticalAlign=middle;whiteSpace=wrap;rounded=0;" vertex="1" parent="3qrNGIHSP-mbPtS7HRhv-19">
          <mxGeometry x="30" y="15" width="60" height="30" as="geometry" />
        </mxCell>
        <mxCell id="3qrNGIHSP-mbPtS7HRhv-24" style="edgeStyle=orthogonalEdgeStyle;rounded=0;orthogonalLoop=1;jettySize=auto;html=1;" edge="1" parent="1" source="3qrNGIHSP-mbPtS7HRhv-14" target="3qrNGIHSP-mbPtS7HRhv-20">
          <mxGeometry relative="1" as="geometry" />
        </mxCell>
        <mxCell id="3qrNGIHSP-mbPtS7HRhv-27" value="" style="ellipse;whiteSpace=wrap;html=1;" vertex="1" parent="1">
          <mxGeometry x="340" y="620" width="120" height="80" as="geometry" />
        </mxCell>
        <mxCell id="3qrNGIHSP-mbPtS7HRhv-28" value="Selesai" style="text;html=1;align=center;verticalAlign=middle;whiteSpace=wrap;rounded=0;" vertex="1" parent="1">
          <mxGeometry x="370" y="645" width="60" height="30" as="geometry" />
        </mxCell>
        <mxCell id="3qrNGIHSP-mbPtS7HRhv-29" style="edgeStyle=orthogonalEdgeStyle;rounded=0;orthogonalLoop=1;jettySize=auto;html=1;entryX=0.5;entryY=0;entryDx=0;entryDy=0;" edge="1" parent="1" source="3qrNGIHSP-mbPtS7HRhv-20" target="3qrNGIHSP-mbPtS7HRhv-27">
          <mxGeometry relative="1" as="geometry" />
        </mxCell>
      </root>
    </mxGraphModel>
  </diagram>
</mxfile>
